<svg width="21" height="19" viewBox="0 0 21 19" fill="none" xmlns="http://www.w3.org/2000/svg">
<path id="Vector" d="M9.62265 16.82L9.62193 16.8193C7.05518 14.4568 4.96457 12.5291 3.5098 10.7225C2.06075 8.92304 1.29297 7.30346 1.29297 5.56541C1.29297 2.72048 3.47865 0.521606 6.2546 0.521606C7.82851 0.521606 9.34951 1.26794 10.3414 2.44101L10.7232 2.89256L11.105 2.44101C12.0969 1.26794 13.6179 0.521606 15.1918 0.521606C17.9678 0.521606 20.1534 2.72048 20.1534 5.56541C20.1534 7.30346 19.3857 8.92304 17.9366 10.7225C16.4818 12.5291 14.3912 14.4568 11.8245 16.8193L11.8238 16.82L10.7232 17.837L9.62265 16.82Z" fill="white" stroke="#52575A"/>
</svg>
